<svg xmlns="http://www.w3.org/2000/svg" width="64" height="64" viewBox="0 0 64 64">
  <title>sushi-resource</title>
  <path d="M20.49,26.8l-2.16.14,0,.86V28c0,.53-.19.86-.67.86,0,0-2.26-.34-2.26-1.73v-1c0-.48,0-1,0-1.54l-.62-7a6.2,6.2,0,0,0-.67-2.35,2.13,2.13,0,0,1-.34-.91c0-.24.14-.43.58-.43a11,11,0,0,1,3.22,1l8.64-.67h.48a2,2,0,0,1,2.11,1.54c0,.38-.24.62-.29.91l-1,7.39c.82.86,1.1,1.39,1.1,1.68,0,.48-.62.53-1.34.58l-3.94.24,0,6.34,1.49,0a5.12,5.12,0,0,0,1.58-.34,1.42,1.42,0,0,1,.48-.1c.67,0,2.21,1.25,2.21,2,0,.43-.43.62-1,.67l-4.75.19-.1,9.79c1.82-.58,3.65-1.25,5.62-2a3.65,3.65,0,0,1,1-.24c.34,0,.48.1.48.29,0,1.44-15.12,7.78-16.8,7.78s-2.83-2.3-2.83-2.59.14-.38.53-.38A13.83,13.83,0,0,0,14,47.64l1.2-.29-.34-13.63a3.21,3.21,0,0,0-.58-1.87,1.28,1.28,0,0,1-.24-.62c0-.24.24-.38.62-.38.82,0,2.93.43,2.93,1.58l.19,14.26L20.39,46Zm5-10.08-7.92.62.58,7.25,6.67-.38ZM49.05,40.39l-6.53.29v9.55c0,.62-.19,1.06-.67,1.06-.24,0-2.21-.62-2.21-2,0-.1,0-.19,0-.34a21.72,21.72,0,0,0,.19-3.26v-4.9L34,41.06V51.62c0,.62-.1,1.15-.72,1.15,0,0-2.21-.34-2.21-1.68,0-.1,0-.24,0-.34a15.25,15.25,0,0,0,.19-3.07l.14-20.88A7.05,7.05,0,0,0,30.9,24a1.25,1.25,0,0,1-.14-.53c0-.19.1-.29.38-.29a9.88,9.88,0,0,1,2.93,1l6.1-.38a51,51,0,0,0-4.61-4c-.53-.43-.86-.72-.86-1.06s.91-1.39,1.54-1.39c.29,0,.72.1,4.32,3.26a41.82,41.82,0,0,0,5.9-5.18l-12.62.91a10.74,10.74,0,0,1-1.15,0,1.75,1.75,0,0,1-1.25-.34A4,4,0,0,1,30,13.89c0-.14.1-.24.38-.24a1.66,1.66,0,0,1,.43,0,7.24,7.24,0,0,0,1.39.14c.29,0,.58,0,.82,0l15.17-1h.43a2.16,2.16,0,0,1,2.11,1.68c0,.53-.62.86-1,1.25a61.59,61.59,0,0,1-7.44,6.62l1.2,1.25,6-.38h.48A1.79,1.79,0,0,1,52,24.79c0,.34-.19.62-.19,1.06l0,23.19c0,.53,0,1,0,1.49a2.56,2.56,0,0,1-2.21,2.54c-1.25,0-5.9-4.22-5.9-5.23a.34.34,0,0,1,.38-.34,1.91,1.91,0,0,1,1,.34,18.35,18.35,0,0,0,4,1.68ZM40,26.28l-6,.38v4.66l5.9-.29Zm0,7-5.9.29v5.18l5.9-.24ZM49,25.7l-6.48.43v4.75L49,30.6Zm0,7.15-6.53.29v5.28l6.53-.29Z" fill="#fff"/>
</svg>
