<svg xmlns="http://www.w3.org/2000/svg" width="64" height="64" viewBox="0 0 64 64">
  <title>sushi-resource</title>
  <path d="M12.63,45a4.73,4.73,0,0,1-2.5-1.54,1.06,1.06,0,0,1-.29-.58c0-.19.19-.34.53-.48,1.68-.91,3.07-1.82,11.47-12.15a1.26,1.26,0,0,0,.24-.29c.62-.67,1.06-1,1.34-1s.29.14.29.43A3.37,3.37,0,0,1,23.19,31c-1.49,2.64-8.54,14.06-10.32,14.06C12.77,45.06,12.72,45,12.63,45Zm6.86-20.88a68.79,68.79,0,0,0-6.34-7,1.35,1.35,0,0,1-.48-.82c0-.67,1.15-1.63,1.63-1.63,1,0,8.21,7,8.21,8.26,0,.58-1.06,2-1.87,2C20.26,25,19.92,24.66,19.49,24.13ZM39,27.49a31.36,31.36,0,0,1-.77,4.66c3,7.54,9.36,13,15.51,16.85.38.24.62.43.62.67s-1.54,1.92-2.45,1.92a1.15,1.15,0,0,1-.72-.29C46.09,47.75,40.47,42.71,37.11,36a19.77,19.77,0,0,1-1.78,4c-5,8.06-14.11,11.86-15,11.86-.38,0-.58-.19-.58-.43s.24-.67.82-1c4.61-2.88,9.79-7.39,12.1-11.81a30.71,30.71,0,0,0,3-11,3,3,0,0,0-.34-1.44,1.45,1.45,0,0,1-.14-.53q0-.43.58-.43c.72,0,3.17.58,3.17,1.92Zm-6.82-5.33c-3,6.34-6.29,10.08-7.15,10.08-.19,0-.29-.14-.29-.38a2.94,2.94,0,0,1,.43-1.25C30,22.41,32.89,11.22,32.89,10a4.8,4.8,0,0,0-.1-.77c0-.1,0-.19,0-.29a.46.46,0,0,1,.53-.53c.24,0,3.12.72,3.12,1.92,0,.82-1.54,5.52-3,9.12l15.27-1a6.81,6.81,0,0,1,.91,0c1,0,2.06.91,2.06,1.58s-5.76,9.6-7.39,9.6c-.19,0-.29-.14-.29-.38a3.35,3.35,0,0,1,.48-1.39,62.69,62.69,0,0,0,3.12-6.53Z" fill="#fff"/>
</svg>
