<svg xmlns="http://www.w3.org/2000/svg" width="64" height="64" viewBox="0 0 64 64">
  <title>sushi-resource</title>
  <path d="M15.27,21.13c-.67,0-1.25.1-1.68.1a2.68,2.68,0,0,1-2.45-1.34,3.61,3.61,0,0,1-.43-.86,1.45,1.45,0,0,1-.1-.38c0-.14.1-.24.34-.24s.19,0,.34,0a12.64,12.64,0,0,0,2.26.19h.62l12.67-.72-.43-.53a34.2,34.2,0,0,0-4.94-4.94,1.07,1.07,0,0,1-.48-.82,1.59,1.59,0,0,1,.48-1q.5-.58.86-.58c.77,0,7,4.9,7,6.29a2.54,2.54,0,0,1-.86,1.49l4.27-.24c4.9-4.66,6.58-7.49,6.58-8.64v-.1c0-.34.1-.53.29-.53.53,0,2.64,1.58,2.64,2.74,0,.77-3.36,4.27-5.62,6.29L47,16.76a8.56,8.56,0,0,0,2.45-.48,1.69,1.69,0,0,1,.48-.1c.86,0,2.78,1.44,2.78,2.35,0,.38-.38.58-1,.62Zm13,19.39L18.39,41l-.19,9.6c0,.67-.24,1.15-.86,1.15S15,51.13,15,49.93c0-.14,0-.24,0-.38.67-3.6.82-18.87.82-21.65a7.32,7.32,0,0,0-.34-2.74,3.65,3.65,0,0,1-.24-.91c0-.24.1-.34.38-.34a14.24,14.24,0,0,1,3,.82L28.9,24.1h.34c.86,0,2,.58,2,1.58,0,.34-.14.67-.14,1.06l.14,21.31c0,.58.1,1.06.1,1.49a2.51,2.51,0,0,1-2,2.26c-1.34,0-7.39-4-7.39-5,0-.19.14-.29.43-.29a3.67,3.67,0,0,1,1,.24,36.35,36.35,0,0,0,4.94,1.63Zm0-7L18.49,34l0,4.37,9.84-.48Zm0-6.86-9.6.62-.1,4.22,9.7-.48Zm8.21,2.06A5,5,0,0,0,36,26.21a1.26,1.26,0,0,1-.14-.48c0-.19.1-.29.38-.29a6.39,6.39,0,0,1,1.73.48c1.39.53,1.39,1.06,1.39,1.68l.19,14.5c0,.72-.14,1.25-.77,1.25-.14,0-2.5-.53-2.5-1.92a2,2,0,0,1,0-.53,18.56,18.56,0,0,0,.19-3.17Zm8.5-3.7a4.94,4.94,0,0,0-.62-2.5,1.73,1.73,0,0,1-.24-.62c0-.14.1-.19.29-.19a9.57,9.57,0,0,1,2.06.53c1.3.43,1.63.91,1.63,1.68L48,48.2c0,.72,0,1.25,0,1.68a2.43,2.43,0,0,1-2.3,2.35c-1.68,0-8.35-5.09-8.35-6.14,0-.19.14-.34.43-.34a3.3,3.3,0,0,1,1.44.48,23.56,23.56,0,0,0,5.57,2.21Z" fill="#fff"/>
</svg>
