<svg xmlns="http://www.w3.org/2000/svg" width="64" height="64" viewBox="0 0 64 64">
  <title>shake</title>
  <g>
    <path d="M16.23,28.27c-1.13-2-2.2-3.89-3.35-5.78-.65-1.06-.53-1.76.59-2.4q6.54-3.71,13-7.52a1.53,1.53,0,0,1,2.5.7c1.15,2.11,2.39,4.17,3.72,6.47,3.21-3.11,5.85-1.27,8.5.81,1.78,1.4,3.65,2.68,5.48,4a4.86,4.86,0,0,0,5.94-.08,1.87,1.87,0,0,1,.83-.22c2.39-.29,4.79-.54,7.18-.84,1-.12,1.4.15,1.51,1.21.39,4,.88,7.92,1.35,11.87.1.84-.14,1.29-1,1.39-2.49.25-5,.56-7.48.83-.24,0-.61.07-.71-.05-1.4-1.83-3.26-.37-4.87-.67-.24,0-.59.26-.84.46-1,.79-1.93,1.6-2.88,2.42a4.93,4.93,0,0,0-.54.61c-.39.47-.68,1.09-1.16,1.38-4.28,2.52-8.61,5-12.87,7.49-1.26.75-1.94.43-2.58-.76-.95-1.77-2-3.48-3-5.19-3,.77-4.08.1-4.78-2.73a2.45,2.45,0,0,0-.47-.83c-.15-.19-.43-.29-.54-.49-1.06-2-2.08-4-3.13-5.93a2.85,2.85,0,0,0-.52-.79C14,31.75,14,30.12,16.23,28.27Zm1.69-.94a6.16,6.16,0,0,0,1-.48c2.6-1.92,4.63-.15,5,2.27a2.57,2.57,0,0,0,.42.84c1.2,1.93,2.42,3.86,3.63,5.8a10.1,10.1,0,0,0,1,1.75c1.71,1.78,1.48,3.71-.66,5l-1.26.78,1.44,2.45,12.71-7.34-3.08-5.35-3-5.19c-3.56,1.82-5.72,1.72-7-.46a5.65,5.65,0,0,1-.67-2.92c.05-2.11,1.84-3,3.48-3.94L28.7,16.64,16,24Zm20.79-1.62-1.86,1.2,7.2,12.47c3.15-.79,3.6-3.09,3.57-5.75l1.74-.2.16,2.67,4-.32-1-8.62a23.21,23.21,0,0,0-3.18.23,3.73,3.73,0,0,1-3.25-.87c-2.63-2-5.34-3.87-8-5.84a2.59,2.59,0,0,0-3.36-.14c-1.26.85-2.63,1.54-3.95,2.31-1.51.89-2,2.06-1.3,3.28s2,1.54,3.57.67,3-1.75,4.65-2.67Zm-17.11,14c1.65-1,3.18-1.9,4.61-2.91.17-.12,0-1-.29-1.42a1.31,1.31,0,0,0-1.22-.33,32.91,32.91,0,0,0-3.82,2.22,1.36,1.36,0,0,0-.31,1.23C20.72,39,21.2,39.3,21.6,39.75Zm2.09,3.6c1.64-1,3.16-1.88,4.59-2.89.18-.13,0-1-.25-1.41a1.29,1.29,0,0,0-1.19-.38,34.66,34.66,0,0,0-3.92,2.26,1.36,1.36,0,0,0-.25,1.24C22.82,42.61,23.3,42.93,23.69,43.35ZM17.43,32.58c1.67-1,3.22-2,4.68-3,.15-.11-.09-1.05-.39-1.4a1.34,1.34,0,0,0-1.26-.23,31.28,31.28,0,0,0-3.69,2.13,1.38,1.38,0,0,0-.38,1.22C16.52,31.72,17,32.06,17.43,32.58ZM24.3,33c0-1.29-.94-1.95-1.89-1.45a26.1,26.1,0,0,0-3.42,2,1.79,1.79,0,0,0-.39,1.54c.2.82.88,1,1.63.55,1.15-.66,2.31-1.3,3.43-2A2.91,2.91,0,0,0,24.3,33ZM37.86,44.6v-.68c-.57-.39-1.18-1.14-1.69-1.08s-1,.89-1.53,1.39c.5.51.95,1.34,1.51,1.42S37.29,45,37.86,44.6Z"/>
    <path d="M13.35,4.72v2.1C5.58,8.87,3.86,10.61,2.58,17.69h-2C-.38,12,5.44,4.34,13.35,4.72Z"/>
    <path d="M44.43,59.29C44,57.08,44,57.08,46,56.8a10.54,10.54,0,0,0,8.68-8.36c.12-.68.21-1.36.33-2.15.36,0,.73-.09,1.11-.1s.67,0,1,0C57.85,52.17,52.35,59.41,44.43,59.29Z"/>
    <path d="M13.35,9.57v2.25a6.63,6.63,0,0,0-5.73,5.86H5.44C5.1,13.71,8.77,9.9,13.35,9.57Z"/>
    <path d="M44.37,54.37C44,52.94,44.06,52,45.8,51.64c2.24-.51,3.44-2.26,4.32-5.38h2C53,49.82,48.91,54.11,44.37,54.37Z"/>
    <path d="M17.92,27.33,16,24,28.7,16.64,31,20.55c-1.63,1-3.43,1.83-3.48,3.94a5.65,5.65,0,0,0,.67,2.92c1.31,2.18,3.47,2.28,7,.46l3,5.19,3.08,5.35L28.56,45.75,27.12,43.3l1.26-.78c2.14-1.28,2.37-3.22.66-5a10.1,10.1,0,0,1-1-1.75c-1.2-1.94-2.42-3.86-3.63-5.8a2.57,2.57,0,0,1-.42-.84c-.42-2.42-2.45-4.19-5-2.27A6.16,6.16,0,0,1,17.92,27.33Z" fill="#fff"/>
    <path d="M38.71,25.71l-1-1.56c-1.6.92-3.12,1.81-4.65,2.67s-2.88.6-3.57-.67-.21-2.39,1.3-3.28c1.31-.78,2.68-1.46,3.95-2.31a2.59,2.59,0,0,1,3.36.14c2.65,2,5.36,3.85,8,5.84a3.73,3.73,0,0,0,3.25.87,23.21,23.21,0,0,1,3.18-.23l1,8.62-4,.32-.16-2.67-1.74.2c0,2.66-.41,5-3.57,5.75l-7.2-12.47Z" fill="#fff"/>
    <path d="M21.6,39.75c-.4-.45-.89-.78-1-1.21a1.36,1.36,0,0,1,.31-1.23,32.91,32.91,0,0,1,3.82-2.22,1.31,1.31,0,0,1,1.22.33c.27.37.46,1.29.29,1.42C24.78,37.85,23.25,38.73,21.6,39.75Z" fill="#fff"/>
    <path d="M23.69,43.35c-.39-.43-.87-.75-1-1.18a1.36,1.36,0,0,1,.25-1.24,34.66,34.66,0,0,1,3.92-2.26,1.29,1.29,0,0,1,1.19.38c.26.37.43,1.29.25,1.41C26.86,41.47,25.34,42.34,23.69,43.35Z" fill="#fff"/>
    <path d="M17.43,32.58c-.44-.52-.91-.86-1-1.29a1.38,1.38,0,0,1,.38-1.22,31.28,31.28,0,0,1,3.69-2.13,1.34,1.34,0,0,1,1.26.23c.3.35.54,1.29.39,1.4C20.65,30.61,19.1,31.53,17.43,32.58Z" fill="#fff"/>
    <path d="M24.3,33a2.91,2.91,0,0,1-.63.66c-1.13.69-2.28,1.34-3.43,2-.75.43-1.43.26-1.63-.55A1.79,1.79,0,0,1,19,33.59a26.1,26.1,0,0,1,3.42-2C23.35,31.09,24.32,31.74,24.3,33Z" fill="#fff"/>
    <path d="M37.86,44.6c-.57.38-1.2,1.13-1.71,1.05s-1-.91-1.51-1.42c.51-.49,1-1.31,1.53-1.39s1.12.69,1.69,1.08Z" fill="#fff"/>
  </g>
</svg>
