<svg xmlns="http://www.w3.org/2000/svg" width="128" height="64" viewBox="0 0 128 64">
  <title>sushi-title</title>
  <g>
    <path d="M58.72,34.57q0,1.19-1.38,1.19a29.46,29.46,0,0,1-3.63-.28q-2.94-.37-3.63-.41,0,2.57.18,5.23A27,27,0,0,0,50.69,43,18.55,18.55,0,0,1,51,45.73a10,10,0,0,1-1.52,4.73q-1.7,3-3.58,3.26A5.35,5.35,0,0,1,44.4,52.2a15.35,15.35,0,0,0-3.21-3.26,7.66,7.66,0,0,1-2.11-2.85,17.82,17.82,0,0,0,5.1,1.06,2.41,2.41,0,0,0,2.52-1.93A14.73,14.73,0,0,0,47,41.73q0-2.39-.23-6.43a44.47,44.47,0,0,0-12.49,3.35,41.08,41.08,0,0,1-3.86,6.89q-3.12,4.45-5.83,5a6.37,6.37,0,0,1-1.7-3.81l-.18-1.79a4.79,4.79,0,0,0-.55-1.65q.6-2.16,4.32-4.41.92-.55,5.78-2.94,1.1-2.07,1.93-3.95-5.65,1.65-7.8,3.54-1.19-.32-2.2-2.62l.6-.92H26q3.67-2,5.28-3a30.34,30.34,0,0,0,4.87-3.44L34,26.17a13,13,0,0,1-3.49-1.24q5.74-1.79,6.7-2.94a7.79,7.79,0,0,0,.87-1.42,31.23,31.23,0,0,1-4.31,1,7.16,7.16,0,0,1-4.73-2.07,99,99,0,0,0,9.78-2.34l.83-3q.18-.6-1.1-.87l.09-1a2.61,2.61,0,0,0,1.1-1.7q1.38.37,2.75.78a5.2,5.2,0,0,1,2.34,1.42,27.58,27.58,0,0,0-2.66,3.31,18.8,18.8,0,0,1,4.27-1.29,14.12,14.12,0,0,1,2.2.55,1.77,1.77,0,0,1,1.15,1.74q-.87.37-4.36,1.38a12.61,12.61,0,0,0-4.09,1.79l-.46,1a9.65,9.65,0,0,1,3-.55,5.09,5.09,0,0,1,2.39.55,1.66,1.66,0,0,1,.37,1q0,.92-1.61,1.38-.6.14-2.39.41a13.18,13.18,0,0,0-3,1.56l-1.06,2.3a85.12,85.12,0,0,1,11.75-2.75,1.37,1.37,0,0,0,0-.32A5.82,5.82,0,0,0,49,21.95q1.19.69,6,2.75a5.09,5.09,0,0,1,2.57,1.74q.09,1.79-3.72,2.16-2.62.23-4.59.55l2,1.15-.6,1.51,4.41.28a4.93,4.93,0,0,1,3.63,2.16Zm-28,5.1q-4.82,2-6.61,4.32.37,1.56.46,1.79a4.14,4.14,0,0,0,.83,1.61A61.09,61.09,0,0,0,30.67,39.67ZM35.54,28a44.05,44.05,0,0,0-4.41,2.52q1.56-.6,4-1.42Zm8.58,13.36q-.37.92-3.31,1.84-1.33.41-5,1.65.87-.78,2.07-1.93a3.3,3.3,0,0,0,.92-1.56,6.28,6.28,0,0,1-1.33-.6q-.87-.46-.87-1a15.73,15.73,0,0,0,2.8-1.19l2.94.6A2.36,2.36,0,0,1,44.12,41.37Zm2.39-10.19-1.19-1.42.64-.5-.51-.14a64.3,64.3,0,0,0-7.57,2,25.25,25.25,0,0,0-2.07,4.18q.28,0,1.93-.64a40.21,40.21,0,0,1,8.58-2.16Z"/>
    <path d="M85.67,22l3.49.37q1.15.32,2.34,2.71a5.25,5.25,0,0,1-2.16.92q-1.15.23-2.3.41-.46.14-4,2-1.1.41-3.17,1.42a15.08,15.08,0,0,0-4.22,3.31q-2.39,2.62-2.52,4.5l.5.69q6.38-7,14.83-7.71,1.24.41,2.43.87A4.68,4.68,0,0,1,93,32.69a25.25,25.25,0,0,0,.87,2.52q-2.89,1.29-3.4,1.61A5.65,5.65,0,0,0,88,39.57q.87.23,1.79.5a2.17,2.17,0,0,1,1.33,1L90.9,42l.83.92A10.51,10.51,0,0,1,87,44.44q-4.77.55-4.91.6a8.64,8.64,0,0,0-1.42-.23,1.61,1.61,0,0,1-1.33-.73q-.18-1.7-.18-1.38a1.76,1.76,0,0,1,.6-1.24q.64-.37,1.93-1.29a26.71,26.71,0,0,0,2.48-2.8q1.74-2.16,2.39-3.17a12.28,12.28,0,0,0-3.35.32,23.73,23.73,0,0,0-4.36,2,9.38,9.38,0,0,0-3.49,2.85,2.74,2.74,0,0,0-.51,1.88L76,44.95l-.32,1.19a3.08,3.08,0,0,1-.51,0,2.65,2.65,0,0,1-1.56-.62,4.24,4.24,0,0,1-1.24-1.4,10.19,10.19,0,0,1-.76-2.71,18.35,18.35,0,0,1-.34-3,3.94,3.94,0,0,1,.87-2.8q.69-.55,2-1.7,1.88-1.65,5.55-5.19L78.14,29q-.18,0-2.94-.28a5.22,5.22,0,0,1-2.71-.87,17.91,17.91,0,0,1,3.26-1.29,31.83,31.83,0,0,0,3.35-1.24l3.21-1.79A17.54,17.54,0,0,1,85.67,22Zm8-8.63,4.64.64,4,2.11A6.12,6.12,0,0,1,105,19.65a3.22,3.22,0,0,1-1.42.6,6,6,0,0,0-1.42.37,4.2,4.2,0,0,0-1,2.8q0,3.72,1.24,16.76,0,.32.32,2.39.23,1.79.23,2.25,0,4.59-4.27,7.94a7.59,7.59,0,0,1-1.24,1.88l-2.07-.5-.73-1.56a31.88,31.88,0,0,1-3.4-2.11,6.21,6.21,0,0,1-2-3.4l2.16.55a9.72,9.72,0,0,0,2.2.32q1.61,0,3.4-3a9.49,9.49,0,0,0,1.65-4.54q0-2.39-.37-7.21T97.93,26l.32-6.56a2.87,2.87,0,0,0-1.65-2.57,5.83,5.83,0,0,0-3.08-1q-2.66,0-10.1,3.17-1.7.55-5,1.88a40.35,40.35,0,0,1-4.91,2.52l-1.38-.55,0-2.71-.6-1.29V18q.37-.55,1.61-.55c.15,0,.37,0,.64,0a6,6,0,0,0,.64,0l.18,1q.64-.14,9.59-3Q90.53,13.41,93.7,13.41Z"/>
  </g>
</svg>
